<svg version="1.2" xmlns="http://www.w3.org/2000/svg" viewBox="0 0 1280 720" width="1280" height="720">
	<title>New Project</title>
	<style>
		.s0 { fill: white } 
	</style>
	<path id="hdn" class="s0" aria-label="hdn"  d="m537 273.8h-134.4q-12 0-12-9.2 0-3.6 2.4-7.6 4.8-8.4 4.8-18.4 0-6.8-2.4-10.8l-53.2-90.4q-2.4-3.6-6-3.6-6.4 0-12.4 10.4l-186 321.6q-2.8 5.2-2.8 9.6 0 9.6 11.2 9.6h96q7.6 0 16.4-5.6 9.2-5.6 13.6-13.6l88.8-153.6q4.8-8 13.6-13.6 8.8-5.6 16.8-5.6 10.8 0 10.8 9.6 0 4.4-2.8 9.6l-88.8 153.6q-2.8 5.2-2.8 9.6 0 9.6 11.2 9.6h96q7.6 0 16.4-5.6 9.2-5.6 13.6-13.6l100-172.8q2.8-5.2 2.8-9.6 0-9.6-10.8-9.6zm362-46l-53.2-90.4q-2.4-3.6-6-3.6-6.4 0-12.4 10.4l-64 110.4q-4.4 8-13.6 13.6-8.8 5.6-16.4 5.6h-134.4q-8 0-17.2 5.6-8.8 5.6-13.2 13.6l-100 172.8q-2.8 5.2-2.8 9.6 0 9.6 11.2 9.6h268.8q7.6 0 16.4-5.6 9.2-5.6 13.6-13.6l120.8-208.8q4.8-8.4 4.8-18.4 0-6.8-2.4-10.8zm-168.8 84.4l-77.6 134.4q-4.4 8-13.6 13.6-8.8 5.6-16.8 5.6-10.8 0-10.8-9.6 0-4.4 2.8-9.6l77.6-134.4q4.8-8 13.6-13.6 8.8-5.6 16.8-5.6 10.8 0 10.8 9.6 0 4.4-2.8 9.6zm461.6-38.4h-268.8q-8 0-17.2 5.6-8.8 5.6-13.2 13.6l-100 172.8q-2.8 5.2-2.8 9.6 0 9.6 11.2 9.6h96q7.6 0 16.4-5.6 9.2-5.6 13.6-13.6l88.8-153.6q4.8-8 13.6-13.6 8.8-5.6 16.8-5.6 10.8 0 10.8 9.6 0 4.4-2.8 9.6l-88.8 153.6q-2.8 5.2-2.8 9.6 0 9.6 11.2 9.6h96q7.6 0 16.4-5.6 9.2-5.6 13.6-13.6l100-172.8q2.8-5.2 2.8-9.6 0-9.6-10.8-9.6z"/>
</svg>
