<svg width="58" height="67" viewBox="0 0 58 67" fill="none" xmlns="http://www.w3.org/2000/svg">
<rect x="17.2983" y="39.0403" width="23.4035" height="26.9979" rx="4" fill="#939393"/>
<rect x="6.10352e-05" y="5.29291" width="6.10526" height="36.9971" rx="2" fill="#2563EB"/>
<rect x="51.8948" y="5.29291" width="6.10526" height="36.9971" rx="2" fill="#2563EB"/>
<rect x="10.1755" y="5.29291" width="37.6491" height="6" rx="2" fill="#2563EB"/>
<path fill-rule="evenodd" clip-rule="evenodd" d="M35.8685 4.66343C35.8685 4.30688 35.6787 3.9773 35.3703 3.79841L29.1203 0.17319C28.81 -0.00678616 28.4271 -0.00678581 28.1168 0.17319L21.8668 3.79841C21.5584 3.9773 21.3685 4.30688 21.3685 4.66343V11.9219C21.3685 12.2785 21.5584 12.608 21.8668 12.7869L28.1168 16.4122C28.4271 16.5921 28.81 16.5921 29.1203 16.4122L35.3703 12.7869C35.6787 12.608 35.8685 12.2785 35.8685 11.9219V4.66343ZM31.7973 7.06051C31.7973 6.70398 31.6075 6.37441 31.2991 6.19551L29.0366 4.88308C28.7263 4.70308 28.3433 4.70308 28.033 4.88308L25.7705 6.19551C25.4621 6.37441 25.2723 6.70398 25.2723 7.06051V9.69356C25.2723 10.0501 25.4621 10.3797 25.7705 10.5586L28.033 11.871C28.3433 12.051 28.7263 12.051 29.0366 11.871L31.2991 10.5586C31.6075 10.3797 31.7973 10.0501 31.7973 9.69356V7.06051Z" fill="#A78BFA"/>
</svg>
