<svg width="58" height="66" viewBox="0 0 58 66" fill="none" xmlns="http://www.w3.org/2000/svg">
<path d="M25.3382 8.33437C26.7389 5.1465 31.2616 5.14651 32.6623 8.33438L55.5356 60.3909C56.6972 63.0343 54.7609 66 51.8736 66H6.12692C3.23958 66 1.30334 63.0343 2.46485 60.3909L25.3382 8.33437Z" fill="#CBD5E1"/>
<path opacity="0.5" d="M26.9651 36C26.9651 34.8954 27.8606 34 28.9651 34C30.0697 34 30.9651 34.8954 30.9651 36V66H26.9651V36Z" fill="black"/>
<path d="M22.4669 26V24.892L25.0557 22.495C25.2759 22.282 25.4605 22.0902 25.6097 21.9197C25.7612 21.7493 25.876 21.5824 25.9541 21.419C26.0323 21.2533 26.0713 21.0746 26.0713 20.8828C26.0713 20.6697 26.0228 20.4863 25.9257 20.3324C25.8287 20.1761 25.6961 20.0566 25.528 19.9737C25.3599 19.8885 25.1693 19.8459 24.9563 19.8459C24.7337 19.8459 24.5396 19.8909 24.3739 19.9808C24.2082 20.0708 24.0803 20.1998 23.9904 20.3679C23.9004 20.536 23.8554 20.736 23.8554 20.968H22.3959C22.3959 20.4922 22.5036 20.0791 22.7191 19.7287C22.9345 19.3783 23.2363 19.1072 23.6246 18.9155C24.0129 18.7237 24.4603 18.6278 24.9669 18.6278C25.4878 18.6278 25.9411 18.7202 26.327 18.9048C26.7153 19.0871 27.0171 19.3404 27.2326 19.6648C27.448 19.9891 27.5557 20.3608 27.5557 20.7798C27.5557 21.0545 27.5013 21.3255 27.3924 21.593C27.2858 21.8606 27.0952 22.1577 26.8206 22.4844C26.546 22.8087 26.1589 23.1982 25.6594 23.6527L24.5976 24.6932V24.7429H27.6516V26H22.4669ZM31.6173 26.1598C31.0065 26.1574 30.481 26.0071 30.0406 25.7088C29.6026 25.4105 29.2653 24.9785 29.0285 24.4126C28.7942 23.8468 28.6782 23.1662 28.6805 22.3707C28.6805 21.5777 28.7977 20.9018 29.0321 20.343C29.2688 19.7843 29.6062 19.3594 30.0442 19.0682C30.4845 18.7746 31.0089 18.6278 31.6173 18.6278C32.2257 18.6278 32.7489 18.7746 33.1869 19.0682C33.6273 19.3617 33.9658 19.7879 34.2025 20.3466C34.4393 20.9029 34.5565 21.5777 34.5541 22.3707C34.5541 23.1686 34.4357 23.8504 34.199 24.4162C33.9646 24.982 33.6284 25.4141 33.1905 25.7124C32.7525 26.0107 32.2281 26.1598 31.6173 26.1598ZM31.6173 24.8849C32.034 24.8849 32.3666 24.6754 32.6152 24.2564C32.8638 23.8374 32.9869 23.2088 32.9845 22.3707C32.9845 21.8191 32.9277 21.3598 32.8141 20.9929C32.7028 20.6259 32.5442 20.3501 32.3382 20.1655C32.1346 19.9808 31.8943 19.8885 31.6173 19.8885C31.203 19.8885 30.8716 20.0956 30.623 20.5099C30.3744 20.9242 30.2489 21.5445 30.2466 22.3707C30.2466 22.9295 30.3022 23.3958 30.4135 23.7699C30.5271 24.1416 30.6869 24.4209 30.8929 24.608C31.0989 24.7926 31.3403 24.8849 31.6173 24.8849Z" fill="black"/>
</svg>
