<svg width="58" height="66" viewBox="0 0 58 66" fill="none" xmlns="http://www.w3.org/2000/svg">
<path fill-rule="evenodd" clip-rule="evenodd" d="M58.0002 18.4722C58.0002 17.0457 57.2405 15.7271 56.0063 15.0116L31.0063 0.518584C29.7656 -0.200694 28.2348 -0.200693 26.994 0.518585L1.99403 15.0116C0.759894 15.7271 0.000183105 17.0457 0.000183105 18.4722V47.4867C0.000183105 48.9133 0.759895 50.2318 1.99403 50.9473L26.994 65.4403C28.2348 66.1596 29.7656 66.1596 31.0063 65.4403L56.0063 50.9473C57.2405 50.2318 58.0002 48.9133 58.0002 47.4867V18.4722ZM41.7154 28.0548C41.7154 26.6283 40.9556 25.3097 39.7215 24.5943L30.6715 19.3478C29.4308 18.6285 27.8999 18.6285 26.6592 19.3478L17.6092 24.5943C16.3751 25.3097 15.6153 26.6283 15.6153 28.0548V38.5762C15.6153 40.0028 16.3751 41.3213 17.6092 42.0368L26.6592 47.2833C27.8999 48.0025 29.4308 48.0025 30.6715 47.2833L39.7215 42.0368C40.9556 41.3213 41.7154 40.0027 41.7154 38.5762V28.0548Z" fill="#84CC16"/>
</svg>
