<svg width="58" height="66" viewBox="0 0 58 66" fill="none" xmlns="http://www.w3.org/2000/svg">
<path fill-rule="evenodd" clip-rule="evenodd" d="M58.0002 18.4851C58.0002 17.0585 57.2405 15.74 56.0063 15.0245L31.0063 0.531462C29.7656 -0.187815 28.2348 -0.187814 26.994 0.531463L1.99403 15.0245C0.759894 15.74 0.000183105 17.0585 0.000183105 18.4851V47.4996C0.000183105 48.9261 0.759895 50.2447 1.99403 50.9602L26.994 65.4532C28.2348 66.1725 29.7656 66.1725 31.0063 65.4532L56.0063 50.9602C57.2405 50.2447 58.0002 48.9261 58.0002 47.4996V18.4851ZM41.7154 28.0677C41.7154 26.6412 40.9556 25.3226 39.7215 24.6071L30.6715 19.3607C29.4308 18.6414 27.8999 18.6414 26.6592 19.3607L17.6092 24.6071C16.3751 25.3226 15.6153 26.6412 15.6153 28.0677V38.5891C15.6153 40.0156 16.3751 41.3342 17.6092 42.0496L26.6592 47.2961C27.8999 48.0154 29.4308 48.0154 30.6715 47.2961L39.7215 42.0496C40.9556 41.3342 41.7154 40.0156 41.7154 38.5891V28.0677Z" fill="#FACC15"/>
</svg>
