<?xml version="1.0" encoding="utf-8"?>
<!-- Generator: Adobe Illustrator 25.4.1, SVG Export Plug-In . SVG Version: 6.00 Build 0)  -->
<svg version="1.1" id="Layer_1" xmlns="http://www.w3.org/2000/svg" xmlns:xlink="http://www.w3.org/1999/xlink" x="0px" y="0px"
	 viewBox="0 0 288 72" style="enable-background:new 0 0 288 72;" xml:space="preserve">
<style type="text/css">
	.st0{fill:#256BA2;}
	.st1{fill:#00263E;}
</style>
<g>
	<g>
		<path class="st0" d="M44.55,19.73c-3.34-2.45-7.45-3.9-11.9-3.9c-4.45,0-8.56,1.45-11.9,3.9c3.18,2.79,7.34,4.49,11.9,4.49
			S41.37,22.52,44.55,19.73z"/>
		<path class="st0" d="M32.65,10.3c5.8,0,11.15,1.93,15.46,5.18c1.23-2.04,2.06-4.34,2.4-6.81c-5.13-3.36-11.27-5.32-17.86-5.32
			c-6.59,0-12.73,1.96-17.86,5.32c0.34,2.46,1.17,4.77,2.4,6.81C21.5,12.23,26.85,10.3,32.65,10.3z"/>
		<path class="st0" d="M32.65,61.7c-5.8,0-11.15-1.93-15.46-5.18c-1.23,2.04-2.06,4.34-2.4,6.81c5.13,3.36,11.27,5.32,17.86,5.32
			c6.59,0,12.73-1.96,17.86-5.32c-0.34-2.46-1.17-4.77-2.4-6.81C43.8,59.77,38.45,61.7,32.65,61.7z"/>
		<path class="st0" d="M20.75,52.27c3.34,2.45,7.45,3.9,11.9,3.9s8.56-1.45,11.9-3.9c-3.18-2.79-7.34-4.49-11.9-4.49
			S23.93,49.48,20.75,52.27z"/>
		<path class="st0" d="M48.92,47.9c2.45-3.34,3.9-7.45,3.9-11.9c0-4.45-1.45-8.56-3.9-11.9c-2.79,3.18-4.49,7.34-4.49,11.9
			S46.13,44.72,48.92,47.9z"/>
		<path class="st0" d="M58.35,36c0,5.8-1.93,11.15-5.18,15.46c2.04,1.23,4.34,2.06,6.81,2.4C63.34,48.73,65.3,42.59,65.3,36
			s-1.96-12.73-5.32-17.86c-2.46,0.34-4.77,1.17-6.81,2.4C56.42,24.85,58.35,30.2,58.35,36z"/>
		<path class="st0" d="M6.95,36c0-5.8,1.93-11.15,5.18-15.46c-2.04-1.23-4.34-2.06-6.81-2.4C1.96,23.27,0,29.41,0,36
			s1.96,12.73,5.32,17.86c2.46-0.34,4.77-1.17,6.81-2.4C8.88,47.15,6.95,41.8,6.95,36z"/>
		<path class="st0" d="M16.38,24.1c-2.45,3.34-3.9,7.45-3.9,11.9c0,4.45,1.45,8.56,3.9,11.9c2.79-3.18,4.49-7.34,4.49-11.9
			S19.17,27.28,16.38,24.1z"/>
	</g>
	<g>
		<path class="st1" d="M96.69,54.91c-11.23,0-19.07-8.51-19.07-18.86s7.94-18.96,19.17-18.96c11.23,0,19.07,8.51,19.07,18.86
			C115.86,46.29,107.92,54.91,96.69,54.91z M96.69,23c-7.26,0-12.33,5.8-12.33,12.95c0,7.16,5.17,13.06,12.43,13.06
			s12.33-5.8,12.33-12.95S103.95,23,96.69,23z"/>
		<path class="st1" d="M148.13,17.72h6.32v36.56h-5.38l-20.16-26.01v26.01h-6.32V17.72h5.95L148.13,43V17.72z"/>
		<path class="st1" d="M190.14,23.47h-20.69v9.51h18.33v5.75h-18.33v9.82h20.95v5.75h-27.37V17.72h27.11V23.47z"/>
	</g>
	<g>
		<rect x="205.68" y="17.7" class="st0" width="3.4" height="36.58"/>
		<polygon class="st0" points="245.64,48.2 221.56,17.84 221.45,17.7 218.39,17.7 218.39,54.29 221.69,54.29 221.69,23.12 
			246.28,54.15 246.39,54.29 248.94,54.29 248.94,17.7 245.64,17.7 		"/>
		<path class="st0" d="M285.68,46.03l-0.26,0.25c-3.94,3.89-7.45,5.48-12.08,5.48c-8.29,0-14.79-6.95-14.79-15.81
			c0-8.96,6.34-15.71,14.74-15.71c5.71,0,9.19,2.61,11.83,5.17l0.26,0.26l2.41-2.48l-0.28-0.26c-3.82-3.5-7.69-5.83-14.18-5.83
			c-10.26,0-18.29,8.33-18.29,18.96c0,10.75,7.82,18.86,18.19,18.86c7.1,0,11.31-3.21,14.5-6.35l0.27-0.26L285.68,46.03z"/>
	</g>
</g>
</svg>
