<svg role="img" aria-label="OneInc Logo" viewBox="0 0 162 36">
<path fill-rule="evenodd" clip-rule="evenodd" d="M8.879 3.6c.18 1.26.6 2.4 1.32 3.42 5.82-3.66 11.52-3.66 17.46.06.24-.72.48-1.387.72-2.053.12-.334.24-.667.36-1.007.18-.54 0-.78-.48-1.08-2.88-1.62-5.94-2.46-9.24-2.46h-.12c-3.42 0-6.66.84-9.54 2.58-.24.18-.54.42-.48.54zm45.66 24.72c6.12 0 10.74-4.38 10.74-10.26.06-5.58-4.56-10.38-11.1-10.2-5.88.18-10.38 4.68-10.32 10.26.06 5.88 4.62 10.2 10.68 10.2zm-3.96-15.9c3.9-2.82 9.54-.78 10.68 3.78.84 3.24-.48 6.48-3.18 7.98-1.02.54-2.22.84-3.42.84-3.42 0-6.36-2.58-6.78-5.88-.36-2.64.36-5.04 2.7-6.72zm23.94 4.02c-.54-.72-1.14-1.44-1.86-2.1h-.06V27.9h-3.6V8.22h3.12c.18 0 .36.18.48.3 1.71 2.1 3.404 4.214 5.099 6.328v.002c1.696 2.115 3.39 4.23 5.101 6.33l.42.42V8.22h3.54V27.9c-.296 0-.598.007-.904.013-.627.013-1.271.027-1.916-.013-.18 0-.36-.18-.48-.36-1.5-1.86-2.985-3.705-4.47-5.55-1.485-1.845-2.97-3.69-4.47-5.55zM4.139 27.66c-.48.18-.72-.06-.96-.42C1.74 24.9.9 22.44.66 19.8c0-.12-.06-.24-.12-.36v-2.58l.54-2.7C1.5 12.3 2.28 10.62 3.24 9c.24-.42.48-.54.9-.42 1.08.36 2.16.72 3.3 1.08-3.9 5.64-3.9 11.22 0 16.92-1.14.36-2.22.72-3.3 1.08zm91.2-2.82h11.58v3.12h-15.3V8.28h15.18v3.12h-11.46v4.98h10.08v3.24h-10.08v5.22zm29.1-13.5c.12.18.18.24.24.3 1.672 2.049 3.353 4.088 5.033 6.125l.002.003c2.599 3.153 5.194 6.302 7.745 9.472.6.78 1.26.84 2.16.72V8.4h-1.86v16.26l-.3-.3c-4.26-5.22-8.52-10.38-12.84-15.54-.12-.18-.42-.36-.6-.42-.32-.04-.64-.027-.96-.013-.16.006-.32.013-.48.013v19.62h1.86V11.34zm34.5 13.2c.36-.3.78-.66 1.2-1.02.11.082.208.165.298.242.107.09.205.173.302.238.17.17.37.31.558.441.077.054.152.107.222.159-3.66 4.32-10.38 4.98-14.7 1.62-4.56-3.54-5.1-10.8-1.08-15.06 4.14-4.38 11.22-4.32 15.6.06-.265.232-.531.446-.786.652h-.001c-.206.167-.406.327-.593.488a39.903 39.903 0 01-.767-.514h-.001l-.001-.001h-.001v-.001h-.001c-.795-.542-1.641-1.118-2.589-1.524-5.1-2.16-10.68.96-11.46 6.18-.42 3.06.3 5.82 2.7 7.98 3.06 2.82 7.74 2.82 11.1.06zm-128.64 1.92c.72.54 2.52 1.26 3.42 1.26.24 0 .54-.24.66-.42 1.56-2.52 2.46-5.22 2.64-8.16.18-3.66-.72-7.14-2.76-10.26-.12-.12-.36-.3-.48-.3-1.26.12-2.46.6-3.54 1.2 3.9 5.58 3.9 11.1.06 16.68zM8.94 32.28c.36-1.02.72-2.1 1.08-3.18 5.88 3.78 11.64 3.78 17.46.06a9.093 9.093 0 011.26 3.42c.06.18-.24.42-.42.54-2.1 1.26-4.32 2.04-6.78 2.4-4.32.6-8.4-.18-12.18-2.34-.42-.24-.6-.42-.42-.9zm19.02-7.8c2.94-3.66 2.82-9.3 0-12.72-3.6 3.42-3.24 9.78 0 12.72zm-2.52 2.4c-3.72-3.36-9.9-3.06-13.2 0 3.66 2.88 9.78 2.76 13.2 0zm0-17.52c-3.54-2.82-9.66-2.82-13.2 0 3.12 3.24 9.96 3.24 13.2 0zm-15.72 2.4c-2.88 3.18-2.88 9.42 0 12.72 3.48-3.54 3.24-9.54 0-12.72zm105.78-3.42h1.86v19.62h-1.86V8.34z" fill="#fff"></path></svg>
