<svg width="68" height="288" viewBox="0 0 68 288" fill="none" xmlns="http://www.w3.org/2000/svg">
<path d="M68 0L52.4001 0L52.4001 39.5739L41.7907 39.5739L41.7907 0L-1.13387e-06 0L-1.13387e-06 55.303L15.6184 55.303L15.6184 15.7104L26.2278 15.7104L26.2278 55.303L68 55.303L68 0ZM68 64.8894H52.4001V96.3475L33.7505 77.4726L15.6184 95.7518V64.8894H-1.13387e-06L-1.13387e-06 120.192H15.6184L34.0647 101.708L52.4001 120.192H68L68 64.8894ZM68 129.704H52.4001L52.4001 169.278H41.7907V129.704H-1.13387e-06V185.007H15.6184L15.6184 145.415H26.2278L26.2278 185.007H68V129.704ZM68 194.37H26.2278L26.2278 233.963H15.5629L15.6184 194.37H-1.13387e-06V249.673H41.7907V210.099H52.4001V249.673L68 249.58V194.37ZM68 259.092H52.4001V272.271H-1.13387e-06V288H68L68 259.092Z" fill="white"/>
</svg>
