<svg version="1.2" xmlns="http://www.w3.org/2000/svg" viewBox="0 0 1640 664" width="1640" height="664">
	<title>New Project</title>
	<style>
		.s0 { fill: #ffffff } 
	</style>
	<path id="23251" class="s0" aria-label="23251"  d="m50.9 154.6v84.4h212.6v57.4h-212.6v226.1h297.1v-84.5h-212.7v-57.4h212.7v-226zm348.6 0v84.4h169l-101.4 100.9 98.2 98.1h-165.8v84.5h297.1v-84.5l-99.3-99.8 99.3-99.2v-84.4zm348.2 0v84.4h212.6v57.4h-212.6v226.1h297.1v-84.5h-212.7v-57.4h212.7v-226zm347.4 0v226h212.7v57.7l-212.7-0.3v84.5h297.1v-226.1h-212.6v-57.4h212.6l-0.5-84.4zm347.7 0v84.4h70.8v283.5h84.5v-367.9z"/>
</svg>
