<svg width="58" height="67" viewBox="0 0 58 67" fill="none" xmlns="http://www.w3.org/2000/svg">
<rect x="17.2983" y="39.0352" width="23.4035" height="26.9979" rx="4" fill="#939393"/>
<rect x="6.10352e-05" y="5.28778" width="6.10526" height="36.9971" rx="2" fill="#DC2626"/>
<rect x="51.8948" y="5.28778" width="6.10526" height="36.9971" rx="2" fill="#DC2626"/>
<rect x="10.1755" y="5.28778" width="37.6491" height="6" rx="2" fill="#DC2626"/>
<path fill-rule="evenodd" clip-rule="evenodd" d="M35.8685 4.6583C35.8685 4.30175 35.6787 3.97218 35.3703 3.79328L29.1203 0.168063C28.81 -0.0119131 28.4271 -0.0119128 28.1168 0.168063L21.8668 3.79328C21.5584 3.97218 21.3685 4.30175 21.3685 4.6583V11.9168C21.3685 12.2733 21.5584 12.6029 21.8668 12.7818L28.1168 16.407C28.4271 16.587 28.81 16.587 29.1203 16.407L35.3703 12.7818C35.6787 12.6029 35.8685 12.2733 35.8685 11.9168V4.6583ZM31.7973 7.05539C31.7973 6.69885 31.6075 6.36928 31.2991 6.19039L29.0366 4.87795C28.7263 4.69796 28.3433 4.69796 28.033 4.87795L25.7705 6.19039C25.4621 6.36928 25.2723 6.69885 25.2723 7.05539V9.68843C25.2723 10.045 25.4621 10.3745 25.7705 10.5534L28.033 11.8659C28.3433 12.0459 28.7263 12.0459 29.0366 11.8659L31.2991 10.5534C31.6075 10.3745 31.7973 10.045 31.7973 9.68844V7.05539Z" fill="#A78BFA"/>
</svg>
