<svg width="58" height="66" viewBox="0 0 58 66" fill="none" xmlns="http://www.w3.org/2000/svg">
<path d="M25.3382 8.33437C26.7389 5.1465 31.2616 5.14651 32.6623 8.33438L55.5356 60.3909C56.6972 63.0343 54.7609 66 51.8736 66H6.12692C3.23958 66 1.30334 63.0343 2.46485 60.3909L25.3382 8.33437Z" fill="#C89D7C"/>
<path opacity="0.5" d="M26.9651 36C26.9651 34.8954 27.8606 34 28.9651 34C30.0697 34 30.9651 34.8954 30.9651 36V66H26.9651V36Z" fill="black"/>
<path d="M26.6485 18.7273V26H25.1109V20.1868H25.0683L23.4028 21.2308V19.8672L25.2032 18.7273H26.6485ZM31.2286 26.1598C30.6178 26.1574 30.0923 26.0071 29.6519 25.7088C29.2139 25.4105 28.8766 24.9785 28.6398 24.4126C28.4055 23.8468 28.2895 23.1662 28.2918 22.3707C28.2918 21.5777 28.409 20.9018 28.6434 20.343C28.8801 19.7843 29.2175 19.3594 29.6555 19.0682C30.0958 18.7746 30.6202 18.6278 31.2286 18.6278C31.837 18.6278 32.3602 18.7746 32.7982 19.0682C33.2386 19.3617 33.5771 19.7879 33.8138 20.3466C34.0506 20.9029 34.1678 21.5777 34.1654 22.3707C34.1654 23.1686 34.047 23.8504 33.8103 24.4162C33.5759 24.982 33.2397 25.4141 32.8018 25.7124C32.3638 26.0107 31.8394 26.1598 31.2286 26.1598ZM31.2286 24.8849C31.6453 24.8849 31.9779 24.6754 32.2265 24.2564C32.4751 23.8374 32.5982 23.2088 32.5958 22.3707C32.5958 21.8191 32.539 21.3598 32.4254 20.9929C32.3141 20.6259 32.1555 20.3501 31.9495 20.1655C31.7459 19.9808 31.5056 19.8885 31.2286 19.8885C30.8143 19.8885 30.4829 20.0956 30.2343 20.5099C29.9857 20.9242 29.8602 21.5445 29.8579 22.3707C29.8579 22.9295 29.9135 23.3958 30.0248 23.7699C30.1384 24.1416 30.2982 24.4209 30.5042 24.608C30.7102 24.7926 30.9516 24.8849 31.2286 24.8849Z" fill="black"/>
</svg>
