<svg width="58" height="66" viewBox="0 0 58 66" fill="none" xmlns="http://www.w3.org/2000/svg">
<path d="M25.3382 8.33437C26.7389 5.1465 31.2616 5.14651 32.6623 8.33438L55.5356 60.3909C56.6972 63.0343 54.7609 66 51.8736 66H6.12692C3.23958 66 1.30334 63.0343 2.46485 60.3909L25.3382 8.33437Z" fill="#FEF08A"/>
<path opacity="0.5" d="M26.9651 36C26.9651 34.8954 27.8606 34 28.9651 34C30.0697 34 30.9651 34.8954 30.9651 36V66H26.9651V36Z" fill="black"/>
<path d="M25.1551 26.0994C24.6248 26.0994 24.1525 26.0083 23.7382 25.826C23.3263 25.6413 23.0008 25.388 22.7617 25.0661C22.5249 24.7417 22.403 24.3677 22.3959 23.9439H23.9442C23.9537 24.1214 24.0117 24.2777 24.1182 24.4126C24.2271 24.5452 24.3715 24.6482 24.5514 24.7216C24.7314 24.795 24.9338 24.8317 25.1587 24.8317C25.3931 24.8317 25.6002 24.7902 25.7801 24.7074C25.9601 24.6245 26.1009 24.5097 26.2027 24.3629C26.3045 24.2161 26.3554 24.0469 26.3554 23.8551C26.3554 23.661 26.301 23.4893 26.1921 23.3402C26.0855 23.1887 25.9317 23.0703 25.7304 22.9851C25.5316 22.8999 25.2948 22.8572 25.0202 22.8572H24.3419V21.728H25.0202C25.2522 21.728 25.457 21.6877 25.6345 21.6072C25.8145 21.5268 25.9541 21.4155 26.0536 21.2734C26.153 21.129 26.2027 20.9609 26.2027 20.7692C26.2027 20.5869 26.1589 20.4271 26.0713 20.2898C25.9861 20.1501 25.8654 20.0412 25.7091 19.9631C25.5552 19.8849 25.3753 19.8459 25.1693 19.8459C24.961 19.8459 24.7704 19.8838 24.5976 19.9595C24.4248 20.0329 24.2863 20.1383 24.1821 20.2756C24.078 20.4129 24.0223 20.5739 24.0152 20.7585H22.5415C22.5486 20.3395 22.6682 19.9702 22.9002 19.6506C23.1322 19.331 23.4447 19.0812 23.8377 18.9013C24.233 18.719 24.6793 18.6278 25.1764 18.6278C25.6783 18.6278 26.1175 18.719 26.4939 18.9013C26.8703 19.0836 27.1627 19.3298 27.371 19.6399C27.5818 19.9477 27.6859 20.2933 27.6835 20.6768C27.6859 21.084 27.5593 21.4238 27.3036 21.696C27.0503 21.9683 26.72 22.1411 26.3128 22.2145V22.2713C26.8478 22.34 27.255 22.5258 27.5344 22.8288C27.8161 23.1295 27.9558 23.5059 27.9534 23.9581C27.9558 24.3724 27.8362 24.7405 27.5948 25.0625C27.3557 25.3845 27.0254 25.6378 26.604 25.8224C26.1826 26.0071 25.6996 26.0994 25.1551 26.0994ZM31.9103 26.1598C31.2995 26.1574 30.7739 26.0071 30.3336 25.7088C29.8956 25.4105 29.5583 24.9785 29.3215 24.4126C29.0871 23.8468 28.9711 23.1662 28.9735 22.3707C28.9735 21.5777 29.0907 20.9018 29.3251 20.343C29.5618 19.7843 29.8992 19.3594 30.3371 19.0682C30.7775 18.7746 31.3019 18.6278 31.9103 18.6278C32.5187 18.6278 33.0419 18.7746 33.4799 19.0682C33.9202 19.3617 34.2588 19.7879 34.4955 20.3466C34.7323 20.9029 34.8494 21.5777 34.8471 22.3707C34.8471 23.1686 34.7287 23.8504 34.492 24.4162C34.2576 24.982 33.9214 25.4141 33.4834 25.7124C33.0455 26.0107 32.5211 26.1598 31.9103 26.1598ZM31.9103 24.8849C32.327 24.8849 32.6596 24.6754 32.9082 24.2564C33.1567 23.8374 33.2798 23.2088 33.2775 22.3707C33.2775 21.8191 33.2207 21.3598 33.107 20.9929C32.9958 20.6259 32.8371 20.3501 32.6312 20.1655C32.4276 19.9808 32.1873 19.8885 31.9103 19.8885C31.496 19.8885 31.1646 20.0956 30.916 20.5099C30.6674 20.9242 30.5419 21.5445 30.5396 22.3707C30.5396 22.9295 30.5952 23.3958 30.7065 23.7699C30.8201 24.1416 30.9799 24.4209 31.1859 24.608C31.3918 24.7926 31.6333 24.8849 31.9103 24.8849Z" fill="black"/>
</svg>
