<svg width="58" height="66" viewBox="0 0 58 66" fill="none" xmlns="http://www.w3.org/2000/svg">
<path fill-rule="evenodd" clip-rule="evenodd" d="M58.0001 18.4851C58.0001 17.0585 57.2404 15.74 56.0063 15.0245L31.0063 0.531462C29.7655 -0.187815 28.2347 -0.187814 26.994 0.531463L1.99397 15.0245C0.759833 15.74 0.00012207 17.0585 0.00012207 18.4851V47.4996C0.00012207 48.9261 0.759834 50.2447 1.99397 50.9602L26.994 65.4532C28.2347 66.1725 29.7655 66.1725 31.0063 65.4532L56.0063 50.9602C57.2404 50.2447 58.0001 48.9261 58.0001 47.4996V18.4851ZM41.7153 28.0677C41.7153 26.6412 40.9556 25.3226 39.7214 24.6071L30.6714 19.3607C29.4307 18.6414 27.8999 18.6414 26.6591 19.3607L17.6091 24.6071C16.375 25.3226 15.6153 26.6412 15.6153 28.0677V38.5891C15.6153 40.0156 16.375 41.3342 17.6091 42.0496L26.6591 47.2961C27.8999 48.0154 29.4307 48.0154 30.6714 47.2961L39.7214 42.0496C40.9556 41.3342 41.7153 40.0156 41.7153 38.5891V28.0677Z" fill="#A78BFA"/>
</svg>
