<svg width="58" height="66" viewBox="0 0 58 66" fill="none" xmlns="http://www.w3.org/2000/svg">
<path fill-rule="evenodd" clip-rule="evenodd" d="M58.0001 18.4851C58.0001 17.0585 57.2403 15.74 56.0062 15.0245L31.0062 0.531462C29.7655 -0.187815 28.2346 -0.187814 26.9939 0.531463L1.99391 15.0245C0.759772 15.74 6.10352e-05 17.0585 6.10352e-05 18.4851V47.4996C6.10352e-05 48.9261 0.759773 50.2447 1.99391 50.9602L26.9939 65.4532C28.2346 66.1725 29.7655 66.1725 31.0062 65.4532L56.0062 50.9602C57.2403 50.2447 58.0001 48.9261 58.0001 47.4996V18.4851ZM41.7152 28.0677C41.7152 26.6412 40.9555 25.3226 39.7214 24.6071L30.6714 19.3607C29.4307 18.6414 27.8998 18.6414 26.6591 19.3607L17.6091 24.6071C16.3749 25.3226 15.6152 26.6412 15.6152 28.0677V38.5891C15.6152 40.0156 16.3749 41.3342 17.6091 42.0496L26.6591 47.2961C27.8998 48.0154 29.4307 48.0154 30.6714 47.2961L39.7214 42.0496C40.9555 41.3342 41.7152 40.0156 41.7152 38.5891V28.0677Z" fill="white"/>
</svg>
