<svg width="58" height="66" viewBox="0 0 58 66" fill="none" xmlns="http://www.w3.org/2000/svg">
<mask id="mask0_26_281" style="mask-type:alpha" maskUnits="userSpaceOnUse" x="-1" y="0" width="59" height="66">
<rect x="-0.00012207" width="58" height="66" fill="white"/>
</mask>
<g mask="url(#mask0_26_281)">
<path d="M9.0825 59.5079L29.8311 19.2629C30.3544 18.2479 31.6198 17.8764 32.6087 18.4474L38.1112 21.6242C39.1002 22.1952 39.4111 23.4769 38.7938 24.4375L14.3149 62.5288C13.7377 63.4269 12.5569 63.7134 11.6323 63.1796L9.86015 62.1564C8.93559 61.6226 8.59328 60.4568 9.0825 59.5079Z" fill="#C89D7C"/>
<path d="M38.0269 25.6357L39.9277 22.673L30.7923 17.3986L29.1729 20.5239L38.0269 25.6357Z" fill="#D9D9D9"/>
<mask id="mask1_26_281" style="mask-type:alpha" maskUnits="userSpaceOnUse" x="30" y="0" width="17" height="23">
<path d="M46.708 12.391C48.1269 20.2479 42.2388 20.6237 40.0848 20.0568L39.9278 22.673L30.7923 17.3986L32.9794 15.9546C27.3392 9.31463 40.3458 4.65754 44.72 1.76941C49.0943 -1.11872 44.9345 2.56994 46.708 12.391Z" fill="white"/>
</mask>
<g mask="url(#mask1_26_281)">
<path d="M35.4077 -7.0047L63.8292 9.40446L52.1084 29.7055L23.6869 13.2964L35.4077 -7.0047Z" fill="#644F3E"/>
<path fill-rule="evenodd" clip-rule="evenodd" d="M43.5233 13.9604C43.6712 13.8608 43.7548 13.6899 43.7428 13.512L43.4499 9.1887C43.4378 9.00984 43.3309 8.85116 43.1696 8.77279L39.2724 6.87858C39.112 6.80063 38.9223 6.81399 38.7744 6.91364L35.167 9.34471C35.0192 9.44436 34.9355 9.61522 34.9476 9.79313L35.2404 14.1164C35.2525 14.2953 35.3595 14.454 35.5207 14.5323L39.418 16.4265C39.5783 16.5045 39.7681 16.4911 39.916 16.3915L43.5233 13.9604ZM41.0257 12.7665C41.1736 12.6668 41.2572 12.496 41.2451 12.3181L41.1349 10.6897C41.1227 10.5109 41.0158 10.3522 40.8546 10.2738L39.3867 9.56039C39.2263 9.48244 39.0366 9.4958 38.8887 9.59545L37.5282 10.5123C37.3803 10.612 37.2967 10.7829 37.3087 10.9608L37.419 12.5891C37.4311 12.768 37.5381 12.9266 37.6993 13.005L39.1672 13.7184C39.3276 13.7964 39.5173 13.783 39.6652 13.6834L41.0257 12.7665Z" fill="#84CC16"/>
<path fill-rule="evenodd" clip-rule="evenodd" d="M52.0196 13.3581C52.1675 13.2585 52.2511 13.0876 52.2391 12.9097L51.9462 8.5864C51.9341 8.40755 51.8272 8.24886 51.6659 8.1705L47.7687 6.27628C47.6083 6.19834 47.4186 6.2117 47.2707 6.31135L43.6633 8.74241C43.5155 8.84207 43.4319 9.01293 43.4439 9.19084L43.7367 13.5141C43.7488 13.693 43.8558 13.8517 44.017 13.93L47.9143 15.8242C48.0746 15.9022 48.2644 15.8888 48.4123 15.7892L52.0196 13.3581ZM49.522 12.1642C49.6699 12.0646 49.7535 11.8937 49.7415 11.7158L49.6312 10.0874C49.619 9.90859 49.5121 9.7499 49.3509 9.67154L47.883 8.9581C47.7226 8.88015 47.5329 8.89351 47.385 8.99316L46.0245 9.91004C45.8766 10.0097 45.793 10.1806 45.805 10.3585L45.9153 11.9868C45.9275 12.1657 46.0344 12.3243 46.1956 12.4027L47.6635 13.1162C47.8239 13.1941 48.0136 13.1807 48.1615 13.0811L49.522 12.1642Z" fill="#FACC15"/>
<path fill-rule="evenodd" clip-rule="evenodd" d="M47.2707 6.31136C47.4186 6.21171 47.5022 6.04085 47.4902 5.86294L47.1973 1.53965C47.1852 1.36079 47.0783 1.20211 46.917 1.12374L43.0198 -0.770468C42.8594 -0.848417 42.6697 -0.835057 42.5218 -0.735404L38.9144 1.69566C38.7666 1.79531 38.683 1.96618 38.695 2.14408L38.9878 6.46737C38.9999 6.64623 39.1069 6.80491 39.2681 6.88328L43.1654 8.77749C43.3257 8.85544 43.5155 8.84208 43.6634 8.74243L47.2707 6.31136ZM44.7731 5.11745C44.921 5.0178 45.0046 4.84694 44.9926 4.66903L44.8823 3.04069C44.8701 2.86183 44.7632 2.70315 44.602 2.62478L43.1341 1.91134C42.9737 1.83339 42.784 1.84675 42.6361 1.94641L41.2756 2.86329C41.1277 2.96294 41.0441 3.1338 41.0561 3.31171L41.1664 4.94005C41.1786 5.11891 41.2855 5.27759 41.4467 5.35596L42.9146 6.0694C43.075 6.14735 43.2647 6.13399 43.4126 6.03433L44.7731 5.11745Z" fill="#A78BFA"/>
</g>
</g>
</svg>
